<?xml version="1.0" standalone="no"?>
<!DOCTYPE svg PUBLIC "-//W3C//DTD SVG 20010904//EN"
 "http://www.w3.org/TR/2001/REC-SVG-20010904/DTD/svg10.dtd">
<svg version="1.0" xmlns="http://www.w3.org/2000/svg"
 width="212.000000pt" height="212.000000pt" viewBox="0 0 212.000000 212.000000"
 preserveAspectRatio="xMidYMid meet">
<metadata>
Created by potrace 1.11, written by Peter Selinger 2001-2013
</metadata>
<g transform="translate(0.000000,212.000000) scale(0.100000,-0.100000)"
fill="#000000" stroke="none">
<path d="M988 2015 c-2 -2 -23 -5 -48 -9 -281 -37 -551 -247 -694 -538 -79
-160 -93 -266 -47 -341 23 -38 95 -78 208 -118 84 -29 135 -63 167 -113 47
-73 45 -75 -164 -127 -102 -26 -223 -57 -270 -68 -47 -12 -98 -27 -113 -33
-28 -11 -29 -12 -22 -75 3 -35 8 -72 10 -81 1 -9 6 -46 10 -82 4 -36 9 -74 11
-85 2 -11 6 -45 9 -75 10 -95 25 -164 38 -172 11 -8 116 -4 162 6 59 13 83 21
116 37 97 48 145 123 164 255 12 79 15 88 26 95 22 13 44 2 53 -27 37 -121 75
-175 152 -220 66 -39 130 -55 219 -55 144 -1 216 24 365 124 168 113 248 140
291 101 12 -10 40 -17 76 -19 55 -2 60 -1 94 35 52 54 135 228 165 345 32 125
40 319 19 439 -64 354 -295 637 -617 756 -80 29 -214 51 -300 49 -43 -1 -79
-3 -80 -4z m249 -1153 c69 -37 85 -126 33 -185 -71 -81 -196 -42 -207 65 -5
52 11 85 54 114 35 23 83 26 120 6z m-641 -208 c-4 -51 -9 -59 -30 -51 -12 5
-14 16 -10 49 11 74 47 75 40 2z m-142 -16 c-3 -18 -7 -38 -9 -45 -2 -6 -34
-14 -72 -18 -37 -4 -76 -9 -85 -11 -9 -1 -48 -6 -85 -9 -37 -4 -71 -9 -75 -11
-8 -5 -18 10 -23 36 -3 15 4 22 33 29 51 14 170 40 212 46 19 4 36 8 39 11 2
2 19 4 37 4 32 0 33 -1 28 -32z m-31 -221 c-2 -74 -17 -117 -53 -154 -40 -41
-90 -63 -155 -70 -60 -6 -59 -8 -70 91 -4 32 -9 70 -12 85 -13 63 -1 81 55 81
17 0 35 1 39 3 16 5 159 23 178 23 18 -1 20 -8 18 -59z"/>
</g>
</svg>
